# xmcd
#
# Track frame offsets:
#	150
#	18115
#	35846
#	62987
#	113109
#	136603
#	157073
#	181452
#	219353
#	244633
#	259829
#	277482
#	296310
#	315504
#
# Disc length: 4422 seconds
#
# Revision: 1
# Processed by: cddbd v1.5.2PL0 Copyright (c) Steve Scherf et al.
# Submitted via: EasyCDDAExtractor 15.2.0.1
#
DISCID=ce11440e
DTITLE=Somlivre - Infinito Amor 2
DYEAR=2008
DGENRE=Gospel
TTITLE0=Rose Nascimento - Ninguem Pode Impedir
TTITLE1=Cristina Mel - Ha Um Anjo Neste Lugar
TTITLE2=Ministerio Toque No Altar - Nao Importa O Dia (Ao Vivo)
TTITLE3=Ministerio Trazendo A Arca - Deus De Promessas (Ao Vivo)
TTITLE4=Mara Maravilha - Retrovisor
TTITLE5=Marcelo Nascimento - A Alegria Do Senhor
TTITLE6=Marco Aurelio - Incomparavel
TTITLE7=Nivea Soares - Rio (Ao Vivo)
TTITLE8=Marquinhos Gomes - Revela Tua Face
TTITLE9=Elaine De Jesus - Deus Garante
TTITLE10=Gisele Nascimento - Carinha De Anjo
TTITLE11=Gilson Campos - Preciso
TTITLE12=Ministerio De Adoracao Jesus Expresso - Onde Andara Voce
TTITLE13=Giovani Santos - Clamor De Um Necessitado
EXTD=
EXTT0=
EXTT1=
EXTT2=
EXTT3=
EXTT4=
EXTT5=
EXTT6=
EXTT7=
EXTT8=
EXTT9=
EXTT10=
EXTT11=
EXTT12=
EXTT13=
PLAYORDER=
